<?xml version="1.0" encoding="iso-8859-1"?>
<!-- Uploaded to: SVG Repo, www.svgrepo.com, Generator: SVG Repo Mixer Tools -->
<svg height="800px" width="800px" version="1.1" id="Layer_1" xmlns="http://www.w3.org/2000/svg" xmlns:xlink="http://www.w3.org/1999/xlink" 
	 viewBox="0 0 392.569 392.569" xml:space="preserve">
<path style="fill:#FFC10D;" d="M96.538,41.869c-15.838-2.457-31.612-5.624-47.386-9.374c4.267,17.261,9.115,34.392,14.61,51.459
	C75.205,70.314,86.065,56.221,96.538,41.869z"/>
<path style="fill:#FFFFFF;" d="M220.336,49.045c-15.968,0.711-32,0.711-47.968,0.129c7.434,15.968,15.451,31.806,23.984,47.515
	C204.885,81.045,212.901,65.142,220.336,49.045z"/>
<path style="fill:#56ACE0;" d="M343.423,32.108c-15.903,3.685-31.741,6.788-47.58,9.244c10.408,14.481,21.398,28.768,32.97,42.602
	C334.308,66.823,339.091,49.433,343.423,32.108z"/>
<path style="fill:#FFC10D;" d="M96.538,154.548c-15.774-2.457-31.612-5.624-47.386-9.374c4.267,17.261,9.115,34.392,14.61,51.459
	C75.205,182.928,86.065,168.835,96.538,154.548z"/>
<path style="fill:#56ACE0;" d="M220.336,161.724c-15.968,0.711-32,0.711-47.968,0.129c7.434,15.968,15.451,31.806,23.984,47.451
	C204.885,193.724,212.901,177.756,220.336,161.724z"/>
<path style="fill:#FFC10D;" d="M343.423,144.786c-15.903,3.685-31.741,6.788-47.58,9.244c10.408,14.481,21.398,28.768,32.97,42.602
	C334.308,179.502,339.091,162.112,343.423,144.786z"/>
<path style="fill:#56ACE0;" d="M76.11,358.96c9.18-15.515,17.778-31.418,25.794-47.451c-16.162,0.065-32.453-0.388-48.743-1.552
	C60.207,326.443,67.835,342.863,76.11,358.96z"/>
<path style="fill:#FFC10D;" d="M178.833,306.467c10.02,14.739,20.622,29.285,31.677,43.507
	c6.012-17.002,11.378-34.263,16.162-51.523C210.833,301.748,194.865,304.334,178.833,306.467z"/>
<path style="fill:#56ACE0;" d="M340.772,315.388c2.715-18.101,4.655-36.137,6.077-54.174c-15.192,6.271-30.578,11.96-45.964,17.067
	C313.685,291.081,326.938,303.493,340.772,315.388z"/>
<g>
	<path style="fill:#194F82;" d="M7.714,21.376c5.818,1.745,11.636,3.426,17.519,5.042c6.465,27.733,14.481,55.661,23.984,82.941
		c3.491,8.598,12.994,9.632,18.489,3.62c19.006-21.657,36.784-44.412,53.075-67.685c8.986,1.099,18.036,2.004,27.022,2.651
		c11.507,25.859,24.566,51.588,39.046,76.477c4.59,7.758,15.127,6.465,18.877,0c14.481-24.954,27.604-50.747,39.176-76.865
		c8.857-0.711,17.713-1.616,26.57-2.715c16.356,23.402,34.327,46.287,53.398,68.073c6.077,6.723,15.321,3.943,18.489-3.62
		c9.503-27.345,17.519-55.273,24.048-83.071c5.818-1.552,11.636-3.103,17.455-4.784c5.689-1.745,8.986-7.887,7.24-13.576
		c-1.745-5.818-7.822-9.051-13.576-7.24c-119.143,36.461-245.204,36.461-364.347,0C8.36-1.121,2.283,2.112,0.473,7.801
		C-1.272,13.489,1.96,19.631,7.714,21.376z M343.423,32.108c-4.267,17.325-9.051,34.715-14.61,51.846
		c-11.507-13.834-22.562-28.057-32.97-42.602C311.681,38.896,327.52,35.857,343.423,32.108z M220.336,49.045
		c-7.434,16.097-15.451,32-24.048,47.709c-8.598-15.58-16.549-31.547-23.984-47.515C188.271,49.821,204.239,49.756,220.336,49.045z
		 M96.538,41.869C86.13,56.221,75.205,70.314,63.762,83.954c-5.495-17.067-10.279-34.263-14.61-51.459
		C64.926,36.245,80.699,39.413,96.538,41.869z"/>
	<path style="fill:#194F82;" d="M7.714,133.99c5.818,1.745,11.636,3.426,17.519,5.042c6.465,27.733,14.481,55.661,23.984,82.941
		c3.491,8.598,12.994,9.632,18.489,3.62c19.006-21.657,36.784-44.412,53.075-67.685c8.986,1.099,18.036,2.004,27.022,2.651
		c11.507,25.859,24.566,51.588,39.046,76.477c4.59,7.758,15.127,6.465,18.877,0c14.481-24.954,27.604-50.747,39.176-76.865
		c8.857-0.711,17.713-1.616,26.57-2.715c16.356,23.402,34.327,46.287,53.398,68.073c6.077,6.723,15.321,3.943,18.489-3.62
		c9.503-27.345,17.519-55.337,24.048-83.135c5.818-1.551,11.636-3.103,17.455-4.784c5.689-1.745,8.986-7.887,7.24-13.576
		c-1.745-5.818-7.822-9.051-13.576-7.24c-119.143,36.461-245.204,36.461-364.347,0c-5.689-1.745-11.83,1.487-13.576,7.24
		C-1.272,126.168,1.96,132.18,7.714,133.99z M343.423,144.786c-4.267,17.325-9.051,34.715-14.61,51.846
		c-11.507-13.834-22.562-28.057-32.97-42.602C311.681,151.574,327.52,148.471,343.423,144.786z M220.336,161.724
		c-7.434,16.097-15.451,32-24.048,47.709c-8.598-15.58-16.549-31.547-23.984-47.451C188.271,162.5,204.239,162.37,220.336,161.724z
		 M96.538,154.548c-10.343,14.287-21.333,28.444-32.776,42.085c-5.495-17.067-10.279-34.263-14.61-51.459
		C64.926,148.859,80.699,152.027,96.538,154.548z"/>
	<path style="fill:#194F82;" d="M391.39,228.956c-2.715-5.495-9.244-7.758-14.739-5.042
		c-113.002,55.919-238.804,76.671-363.701,59.798c-6.077-0.776-11.636,3.426-12.477,9.503c-0.776,6.012,3.426,11.572,9.438,12.412
		c6.077,0.84,12.218,1.487,18.295,2.133c10.99,26.634,23.596,53.139,37.56,78.804c4.848,7.952,14.545,7.564,19.071,0.517
		c15.386-24.76,29.414-50.36,41.891-76.283c9.18-0.388,18.295-1.034,27.41-1.745c15.774,23.984,32.97,47.515,51.459,70.012
		c5.818,6.982,16.162,4.008,18.877-3.103c10.343-27.281,19.265-55.273,26.505-83.135c8.727-2.133,17.39-4.59,26.117-7.111
		c20.234,20.687,41.826,40.598,64.453,59.216c7.176,5.689,15.903,1.422,17.842-6.659c5.042-28.897,8.404-58.117,10.343-86.95
		c5.56-2.457,11.119-5.042,16.614-7.628C391.843,240.98,394.106,234.322,391.39,228.956z M76.11,358.96
		c-8.275-16.162-15.903-32.517-22.949-49.002c16.291,1.164,32.582,1.681,48.743,1.552C93.952,327.542,85.354,343.38,76.11,358.96z
		 M178.833,306.467c15.968-2.069,32-4.784,47.838-8.016c-4.784,17.261-10.214,34.457-16.162,51.523
		C199.455,335.752,188.853,321.207,178.833,306.467z M340.772,315.388c-13.834-11.895-27.152-24.372-39.887-37.107
		c15.386-5.107,30.772-10.796,45.964-17.067C345.427,279.251,343.487,297.417,340.772,315.388z"/>
</g>
</svg>