<?xml version="1.0" encoding="iso-8859-1"?>
<!-- Uploaded to: SVG Repo, www.svgrepo.com, Generator: SVG Repo Mixer Tools -->
<svg version="1.1" id="Layer_1" xmlns="http://www.w3.org/2000/svg" xmlns:xlink="http://www.w3.org/1999/xlink" 
	 viewBox="0 0 392.533 392.533" xml:space="preserve">
<path style="fill:#FFC10D;" d="M359.822,112.808h-22.562c-14.739,0-27.733-9.956-31.612-24.178l-6.723-25.018
	c-1.293-4.719-5.624-8.016-10.537-8.016h-83.523c-4.913,0-9.244,3.297-10.537,8.016l-6.723,25.018
	c-3.879,14.222-16.873,24.178-31.612,24.178H32.711c-6.012,0-10.925,4.848-10.925,10.925v202.408
	c0,6.012,4.848,10.925,10.925,10.925h327.111c6.012,0,10.925-4.848,10.925-10.925V123.798
	C370.747,117.786,365.834,112.808,359.822,112.808z"/>
<rect x="72.081" y="76.412" style="fill:#56ACE0;" width="31.289" height="14.675"/>
<path style="fill:#194F82;" d="M359.822,91.022h-22.562c-4.913,0-9.244-3.297-10.537-8.016L320,57.923
	c-3.879-14.222-16.873-24.178-31.612-24.178h-83.523c-14.739,0-27.733,9.956-31.612,24.178l-6.723,25.083
	c-1.293,4.719-5.624,8.016-10.537,8.016h-30.836v-25.6c0-6.012-4.848-10.925-10.925-10.925H61.22
	c-6.012,0-10.925,4.848-10.925,10.925v25.6H32.711C14.675,91.022,0,105.697,0,123.798v202.279c0,18.036,14.675,32.711,32.711,32.711
	h327.111c18.036,0,32.711-14.675,32.711-32.711V123.798C392.533,105.697,377.859,91.022,359.822,91.022z M72.081,76.412h31.289
	v14.675H72.081V76.412z M370.747,326.077c0,6.012-4.848,10.925-10.925,10.925H32.711c-6.012,0-10.925-4.848-10.925-10.925V123.798
	c0-6.012,4.848-10.925,10.925-10.925h123.345c14.739,0,27.733-9.956,31.612-24.178l6.723-25.018
	c1.293-4.719,5.624-8.016,10.537-8.016h83.523c4.913,0,9.244,3.297,10.537,8.016l6.723,25.018
	c3.879,14.222,16.873,24.178,31.612,24.178h22.562c6.012,0,10.925,4.848,10.925,10.925v202.279H370.747z"/>
<path style="fill:#56ACE0;" d="M246.626,145.778c-43.636,0-79.127,35.491-79.127,79.127s35.491,79.127,79.127,79.127
	s79.127-35.491,79.127-79.127S290.327,145.778,246.626,145.778z"/>
<path style="fill:#194F82;" d="M246.626,123.992c-55.661,0-100.913,45.253-100.913,100.913s45.253,100.913,100.913,100.913
	s100.913-45.253,100.913-100.913C347.539,169.309,302.287,123.992,246.626,123.992z M246.626,304.032
	c-43.636,0-79.127-35.491-79.127-79.127s35.491-79.127,79.127-79.127s79.127,35.491,79.127,79.127S290.327,304.032,246.626,304.032z
	"/>
<path style="fill:#FFFFFF;" d="M246.626,189.414c-19.523,0-35.556,15.903-35.556,35.556c0,19.523,15.903,35.491,35.556,35.491
	c19.523,0,35.491-15.903,35.491-35.491C282.117,205.317,266.214,189.414,246.626,189.414z"/>
<g>
	<path style="fill:#194F82;" d="M246.626,167.628c-31.612,0-57.341,25.729-57.341,57.341s25.729,57.277,57.341,57.277
		s57.341-25.729,57.341-57.341C303.968,193.358,278.238,167.628,246.626,167.628z M246.626,260.396
		c-19.523,0-35.556-15.903-35.556-35.491s15.903-35.556,35.556-35.556c19.523,0,35.491,15.903,35.491,35.556
		C282.117,244.493,266.214,260.396,246.626,260.396z"/>
	<path style="fill:#194F82;" d="M222.513,94.642h48.226c6.012,0,10.925-4.848,10.925-10.925c0-6.012-4.848-10.925-10.925-10.925
		h-48.226c-6.012,0-10.925,4.848-10.925,10.925C211.653,89.794,216.501,94.642,222.513,94.642z"/>
	<path style="fill:#194F82;" d="M342.562,127.289h-5.883c-6.012,0-10.925,4.848-10.925,10.925c0,6.012,4.849,10.925,10.925,10.925
		h5.883c6.012,0,10.925-4.848,10.925-10.925C353.422,132.137,348.574,127.289,342.562,127.289z"/>
	<path style="fill:#194F82;" d="M94.901,123.992c-6.012,0-10.925,4.848-10.925,10.925v170.408c0,6.012,4.848,10.925,10.925,10.925
		c6.012,0,10.925-4.848,10.925-10.925V134.917C105.762,128.905,100.913,123.992,94.901,123.992z"/>
	<path style="fill:#194F82;" d="M53.075,123.992c-6.012,0-10.925,4.848-10.925,10.925v170.408c0,6.012,4.848,10.925,10.925,10.925
		S64,311.402,64,305.325V134.917C64.065,128.905,59.087,123.992,53.075,123.992z"/>
</g>
</svg>