<?xml version="1.0" encoding="iso-8859-1"?>
<!-- Uploaded to: SVG Repo, www.svgrepo.com, Generator: SVG Repo Mixer Tools -->
<svg version="1.1" id="Layer_1" xmlns="http://www.w3.org/2000/svg" xmlns:xlink="http://www.w3.org/1999/xlink" 
	 viewBox="0 0 392.663 392.663" xml:space="preserve">
<rect x="25.406" y="21.786" style="fill:#FFFFFF;" width="268.541" height="348.962"/>
<path style="fill:#194F82;" d="M304.808,0H14.481C8.469,0,3.556,4.848,3.556,10.925v370.747c0,6.012,4.848,10.925,10.925,10.925
	h290.327c6.012,0,10.925-4.848,10.925-10.925V10.861C315.733,4.848,310.82,0,304.808,0z M293.947,370.747H25.406V21.786h268.541
	V370.747z"/>
<path style="fill:#FFC10D;" d="M257.293,124.638c-6.012,0-10.925-4.848-10.925-10.925c0-6.012,4.848-10.925,10.925-10.925h14.869
	V81.002h-36.655c-6.012,0-10.925-4.848-10.925-10.925c0-6.012,4.848-10.925,10.925-10.925h36.655V43.442H47.257v305.325h224.84
	V124.638H257.293z"/>
<path style="fill:#194F82;" d="M249.6,312.695H69.754c-6.012,0-10.925,4.848-10.925,10.925c0,6.012,4.848,10.925,10.925,10.925
	h179.782c6.012,0,10.925-4.848,10.925-10.925C260.461,317.608,255.612,312.695,249.6,312.695z"/>
<path style="fill:#FFFFFF;" d="M241.842,175.451c0-13.188-10.731-23.984-23.984-23.984c-6.012,0-11.766,2.327-16.097,6.271
	c2.327,5.43,3.556,11.442,3.556,17.713c0,17.067-14.739,38.271-30.707,56.178c5.301,5.236,10.343,9.891,14.093,13.188
	C212.881,223.289,241.842,191.095,241.842,175.451z"/>
<path style="fill:#56ACE0;" d="M183.596,175.451c0-13.964-12.024-25.277-26.376-23.79c-7.499,0.776-14.093,5.301-18.166,11.572
	c-4.008,6.077-13.059,6.077-17.067,0l0,0c-4.073-6.271-10.667-10.925-18.166-11.572c-14.287-1.422-26.376,9.826-26.376,23.79
	c0,16.162,28.962,48.226,53.01,69.366C154.505,223.289,183.596,191.095,183.596,175.451z"/>
<path style="fill:#194F82;" d="M217.988,129.745c-10.796,0-21.01,3.879-29.026,10.602c-7.952-6.594-18.101-10.602-29.22-10.602
	c-10.796,0-21.01,3.814-29.156,10.537c-8.145-6.723-18.295-10.537-29.156-10.537c-25.212,0-45.77,20.558-45.77,45.77
	c0,34.263,56.566,82.747,67.943,92.186l0.453,0.388c3.814,3.168,9.244,3.103,13.059-0.065l0.453-0.388
	c3.685-3.103,12.283-10.537,22.109-20.17c11.96,11.766,21.721,19.846,22.174,20.234l0.453,0.388
	c3.814,3.168,9.244,3.103,13.059-0.065l0.453-0.388c11.378-9.503,67.814-58.699,67.814-92.121
	C263.693,150.238,243.135,129.745,217.988,129.745z M174.675,231.564c15.903-17.907,30.707-39.111,30.707-56.178
	c0-6.271-1.228-12.218-3.556-17.713c4.331-3.943,10.02-6.271,16.097-6.271c13.188,0,23.984,10.731,23.984,23.984
	c0,15.58-29.026,47.838-53.075,69.301C185.018,241.455,180.105,236.929,174.675,231.564z M77.511,175.451
	c0-13.964,12.024-25.212,26.376-23.79c7.499,0.776,14.093,5.301,18.166,11.572l0,0c4.008,6.206,13.059,6.206,17.067,0
	c4.073-6.271,10.667-10.925,18.166-11.572c14.287-1.422,26.376,9.826,26.376,23.79c0,15.58-29.026,47.903-53.075,69.366
	C106.537,223.612,77.511,191.547,77.511,175.451z"/>
<rect x="339.394" y="21.786" style="fill:#56ACE0;" width="27.927" height="348.962"/>
<path style="fill:#194F82;" d="M378.182,0h-38.788c-6.012,0-10.925,4.848-10.925,10.925s4.849,10.925,10.925,10.925l0,0h27.927
	v348.962h-27.927l0,0c-6.012,0-10.925,4.848-10.925,10.925s4.849,10.925,10.925,10.925h38.788c6.012,0,10.925-4.848,10.925-10.925
	V10.861C389.042,4.848,384.194,0,378.182,0z"/>
</svg>